<?xml version="1.0" standalone="no"?><!DOCTYPE svg PUBLIC "-//W3C//DTD SVG 1.1//EN" "http://www.w3.org/Graphics/SVG/1.1/DTD/svg11.dtd"><svg t="1643007678986" class="icon" viewBox="0 0 1024 1024" version="1.1" xmlns="http://www.w3.org/2000/svg" p-id="30428" xmlns:xlink="http://www.w3.org/1999/xlink" width="200" height="200"><defs><style type="text/css"></style></defs><path d="M384 160.028444h576a31.971556 31.971556 0 1 1 0 63.943112H384a32.028444 32.028444 0 0 1 0-63.943112z m0 128h576a31.971556 31.971556 0 1 1 0 64H384a32.028444 32.028444 0 0 1 0-64zM31.971556 480.028444h960a31.971556 31.971556 0 1 1 0 63.943112H32.028444a32.028444 32.028444 0 0 1 0-63.943112z m352.028444 191.943112h576a31.971556 31.971556 0 1 1 0 64.056888H384a31.971556 31.971556 0 1 1 0-64.056888z m0 128h576a31.971556 31.971556 0 1 1 0 64.056888H384a31.971556 31.971556 0 1 1 0-64.056888z" fill="#10171F" p-id="30429"></path><path d="M64 0h128C227.328 0 256 28.672 256 64v288.028444c0 35.271111-28.672 64-64 64h-128A64 64 0 0 1 0 352.028444V64C0 28.672 28.672 0 64 0z" fill="#E0443F" p-id="30430"></path><path d="M64 608.028444h128c35.328 0 64 28.615111 64 63.943112v288.028444C256 995.328 227.328 1024 192 1024h-128A64 64 0 0 1 0 960v-288.028444c0-35.271111 28.672-63.943111 64-63.943112z" fill="#31AD84" p-id="30431"></path></svg>