<svg xmlns="http://www.w3.org/2000/svg" viewBox="0 0 1024 1024" version="1.1"><path d="M241.777778 142.222222a42.666667 42.666667 0 0 0-42.666667 42.666667v696.888889h625.777778V184.888889a42.666667 42.666667 0 0 0-42.666667-42.666667H241.777778z m597.333333 768H14.222222a14.222222 14.222222 0 1 1 0-28.444444h156.444445V184.888889a71.111111 71.111111 0 0 1 71.111111-71.111111h540.444444a71.111111 71.111111 0 0 1 71.111111 71.111111v696.888889h156.444445a14.222222 14.222222 0 1 1 0 28.444444H839.111111z" fill="#7D92A8" p-id="22659"></path><path d="M426.666667 312.888889a14.222222 14.222222 0 0 1 14.222222-14.222222h256a14.222222 14.222222 0 1 1 0 28.444444H440.888889a14.222222 14.222222 0 0 1-14.222222-14.222222zM426.666667 426.666667a14.222222 14.222222 0 0 1 14.222222-14.222223h256a14.222222 14.222222 0 1 1 0 28.444445H440.888889a14.222222 14.222222 0 0 1-14.222222-14.222222zM426.666667 540.444444a14.222222 14.222222 0 0 1 14.222222-14.222222h256a14.222222 14.222222 0 1 1 0 28.444445H440.888889a14.222222 14.222222 0 0 1-14.222222-14.222223z" fill="#7D92A8" p-id="22660"></path><path d="M369.777778 312.888889a28.444444 28.444444 0 1 1-56.888889 0 28.444444 28.444444 0 0 1 56.888889 0zM369.777778 426.666667a28.444444 28.444444 0 1 1-56.888889 0 28.444444 28.444444 0 0 1 56.888889 0zM369.777778 540.444444a28.444444 28.444444 0 1 1-56.888889 0 28.444444 28.444444 0 0 1 56.888889 0z" fill="#2271E6" p-id="22661"></path></svg>