<?xml version="1.0" standalone="no"?><!DOCTYPE svg PUBLIC "-//W3C//DTD SVG 1.1//EN" "http://www.w3.org/Graphics/SVG/1.1/DTD/svg11.dtd"><svg t="1643007672340" class="icon" viewBox="0 0 1080 1024" version="1.1" xmlns="http://www.w3.org/2000/svg" p-id="30296" xmlns:xlink="http://www.w3.org/1999/xlink" width="210.9375" height="200"><defs><style type="text/css"></style></defs><path d="M154.339556 56.888889h113.777777a56.888889 56.888889 0 0 1 56.888889 56.888889v682.666666a56.888889 56.888889 0 0 1-56.888889 56.888889h-113.777777a56.888889 56.888889 0 0 1-56.888889-56.888889V113.777778a56.888889 56.888889 0 0 1 56.888889-56.888889z" fill="#E0443F" p-id="30297"></path><path d="M424.561778 256h512a28.444444 28.444444 0 0 1 0 56.888889h-512a28.444444 28.444444 0 0 1 0-56.888889z m0 113.777778h512a28.444444 28.444444 0 0 1 0 56.888889h-512a28.444444 28.444444 0 0 1 0-56.888889z m0 113.777778h512a28.444444 28.444444 0 0 1 0 56.888888h-512a28.444444 28.444444 0 0 1 0-56.888888z m-312.888889 426.666666h853.333333a28.444444 28.444444 0 0 1 0 56.888889h-853.333333a28.444444 28.444444 0 0 1 0-56.888889z m312.888889-312.888889h512a28.444444 28.444444 0 0 1 0 56.888889h-512a28.444444 28.444444 0 0 1 0-56.888889z m0 113.777778h512a28.444444 28.444444 0 0 1 0 56.888889h-512a28.444444 28.444444 0 0 1 0-56.888889z" fill="#DB3A35" p-id="30298"></path></svg>