<svg xmlns="http://www.w3.org/2000/svg" viewBox="0 0 1024 1024" version="1.1"><path d="M768 204.8v76.8c0 70.6928-171.9232 128-384 128S0 352.2928 0 281.6v-76.8c0-70.6928 171.9232-128 384-128s384 57.3072 384 128z m0 179.2v76.8c0 70.6928-171.9232 128-384 128S0 531.4928 0 460.8v-76.8c0 70.6928 171.9232 128 384 128s384-57.3072 384-128z m0 179.2v76.8c0 70.6928-171.9232 128-384 128S0 710.6928 0 640v-76.8c0 70.6928 171.9232 128 384 128s384-57.3072 384-128z m0 179.2v76.8c0 70.6928-171.9232 128-384 128S0 889.8928 0 819.2v-76.8c0 70.6928 171.9232 128 384 128s384-57.3072 384-128z" fill="#8994A3" p-id="23362"></path><path d="M704 704m-320 0a320 320 0 1 0 640 0 320 320 0 1 0-640 0Z" fill="#57A352" p-id="23363"></path><path d="M752 656h111.1824c11.4112 0 15.5488 1.1888 19.7216 3.4192a23.2608 23.2608 0 0 1 9.6768 9.6768c2.2304 4.1728 3.4192 8.3104 3.4192 19.7216v30.3648c0 11.4112-1.1888 15.5488-3.4192 19.7216a23.2608 23.2608 0 0 1-9.6768 9.6768c-4.1728 2.2304-8.3104 3.4192-19.7216 3.4192H752v111.1824c0 11.4112-1.1888 15.5488-3.4192 19.7216a23.2608 23.2608 0 0 1-9.6768 9.6768c-4.1728 2.2304-8.3104 3.4192-19.7216 3.4192H688.816c-11.4112 0-15.5488-1.1888-19.7216-3.4192a23.2608 23.2608 0 0 1-9.6768-9.6768c-2.2304-4.1728-3.4192-8.3104-3.4192-19.7216V752h-111.1824c-11.4112 0-15.5488-1.1888-19.7216-3.4192a23.2608 23.2608 0 0 1-9.6768-9.6768c-2.2304-4.1728-3.4192-8.3104-3.4192-19.7216V688.816c0-11.4112 1.1888-15.5488 3.4192-19.7216a23.2608 23.2608 0 0 1 9.6768-9.6768c4.1728-2.2304 8.3104-3.4192 19.7216-3.4192H656v-111.1824c0-11.4112 1.1888-15.5488 3.4192-19.7216a23.2608 23.2608 0 0 1 9.6768-9.6768c4.1728-2.2304 8.3104-3.4192 19.7216-3.4192h30.3648c11.4112 0 15.5488 1.1888 19.7216 3.4192a23.2608 23.2608 0 0 1 9.6768 9.6768c2.2304 4.1728 3.4192 8.3104 3.4192 19.7216V656z" fill="#FFFFFF" p-id="23364"></path></svg>